<svg width="1208" height="1208" viewBox="0 0 1208 1208" fill="none" xmlns="http://www.w3.org/2000/svg">
<path d="M795.728 217.134C686.874 171.823 561.899 223.334 516.588 332.187L338.336 760.41C308.903 831.118 342.363 912.298 413.071 941.731C483.779 971.164 564.96 937.704 594.393 866.996L773.603 436.471C786.628 405.18 771.821 369.254 740.529 356.229C709.238 343.204 673.312 358.011 660.287 389.302L481.077 819.827C477.694 827.953 468.366 831.798 460.24 828.415C452.115 825.033 448.27 815.704 451.652 807.579L629.904 379.356C649.164 333.086 702.288 311.19 748.559 330.45C794.829 349.711 816.725 402.835 797.465 449.105L619.213 877.328C584.074 961.744 487.156 1001.69 402.74 966.552C318.324 931.413 278.377 834.494 313.516 750.078L492.726 319.554C505.751 288.262 490.944 252.336 459.652 239.311C428.361 226.286 392.435 241.093 379.41 272.385L200.2 702.909C139.01 849.908 208.572 1018.68 355.571 1079.87C502.569 1141.06 671.339 1071.5 732.529 924.497L910.781 496.274C956.092 387.421 904.581 262.446 795.728 217.134Z" fill="#030679" stroke="white" stroke-width="52.9159" stroke-linecap="round"/>
<ellipse cx="453.867" cy="341.81" rx="165.813" ry="127.931" fill="white"/>
<ellipse cx="453.867" cy="341.81" rx="96.2587" ry="74.5229" fill="#20214B"/>
<ellipse cx="416.606" cy="304.549" rx="22.9779" ry="17.3887" fill="white"/>
<path d="M517.97 143.028C416.434 110.916 313.968 148.61 289.108 227.219C287.803 231.346 293.472 233.565 296.141 230.157C337.085 177.874 421.467 156.87 505.216 183.356C523.008 188.983 536.948 149.03 517.97 143.028Z" fill="#20214B"/>
<path fill-rule="evenodd" clip-rule="evenodd" d="M311.133 214.095C321.207 204.975 332.85 197.199 345.701 190.901C389.581 169.397 447.549 165.118 505.217 183.356C523.008 188.983 536.948 149.03 517.971 143.028C446.788 120.516 375.149 132.312 330.112 168.461C317.127 178.883 306.354 191.33 298.44 205.563C294.991 211.767 292.085 218.31 289.776 225.172C289.547 225.852 289.325 226.534 289.108 227.219C287.803 231.346 293.473 233.565 296.141 230.157C296.291 229.966 296.441 229.776 296.592 229.586C300.969 224.063 305.834 218.893 311.133 214.095ZM263.365 219.077C294.537 120.511 416.875 82.7379 526.112 117.285C541.705 122.216 549.925 134.659 552.736 146.333C555.309 157.017 553.792 167.683 551.003 176.072C548.201 184.498 543.094 193.711 535.081 200.665C526.629 207.999 512.902 214.105 497.075 209.099C420.856 184.995 349.533 205.771 317.399 246.804C307.782 259.084 292.396 261.167 280.977 256.53C275.167 254.171 269.194 249.654 265.425 242.544C261.429 235.004 260.999 226.557 263.365 219.077Z" fill="white"/>
<ellipse cx="883.983" cy="489.925" rx="165.813" ry="127.931" fill="white"/>
<ellipse cx="883.983" cy="489.925" rx="96.2587" ry="74.5229" fill="#20214B"/>
<ellipse cx="846.722" cy="452.664" rx="22.9779" ry="17.3887" fill="white"/>
<path d="M820.148 291.143C921.684 259.032 1024.15 296.725 1049.01 375.334C1050.32 379.461 1044.65 381.681 1041.98 378.273C1001.03 325.989 916.651 304.985 832.902 331.471C815.11 337.098 801.17 297.145 820.148 291.143Z" fill="#20214B"/>
<path fill-rule="evenodd" clip-rule="evenodd" d="M1026.98 362.21C1016.91 353.09 1005.27 345.314 992.417 339.016C948.537 317.513 890.57 313.234 832.902 331.471C815.11 337.098 801.17 297.145 820.148 291.143C891.33 268.631 962.969 280.427 1008.01 316.576C1020.99 326.998 1031.76 339.445 1039.68 353.678C1043.13 359.882 1046.03 366.425 1048.34 373.288C1048.57 373.967 1048.79 374.649 1049.01 375.334C1050.32 379.461 1044.65 381.681 1041.98 378.273C1041.83 378.082 1041.68 377.891 1041.53 377.701C1037.15 372.178 1032.28 367.008 1026.98 362.21ZM1074.75 367.193C1043.58 268.626 921.243 230.853 812.006 265.4C796.413 270.332 788.193 282.774 785.382 294.448C782.81 305.133 784.326 315.799 787.115 324.187C789.917 332.614 795.024 341.826 803.037 348.78C811.489 356.114 825.217 362.22 841.043 357.215C917.262 333.11 988.585 353.886 1020.72 394.92C1030.34 407.199 1045.72 409.282 1057.14 404.646C1062.95 402.287 1068.92 397.769 1072.69 390.659C1076.69 383.119 1077.12 374.672 1074.75 367.193Z" fill="white"/>
</svg>
