<svg width="1581" height="484" viewBox="0 0 1581 484" fill="none" xmlns="http://www.w3.org/2000/svg">
<path d="M320.827 35.2619C272.773 15.2587 217.601 37.9988 197.598 86.0533L107.775 301.839C95.773 330.672 109.417 363.775 138.25 375.777C167.083 387.779 200.186 374.135 212.187 345.302L302.493 128.356C306.227 119.386 301.982 109.087 293.012 105.353C284.042 101.619 273.743 105.864 270.009 114.834L179.704 331.78C175.17 342.673 162.664 347.827 151.772 343.293C140.879 338.759 135.725 326.253 140.259 315.361L230.082 99.5751C242.617 69.4609 277.191 55.2104 307.306 67.7458C333.918 78.8235 348.142 107.113 342.438 134.326C341.843 137.166 344.13 139.973 347.028 140.116C347.373 140.133 347.718 140.155 348.064 140.181C355.761 140.379 362.909 142.848 369.089 147.212C369.177 147.269 369.265 147.327 369.352 147.385C371.793 149.006 375.312 148.073 376.03 145.232C387.275 100.69 364.51 53.4453 320.827 35.2619Z" fill="#030679"/>
<path d="M250.136 410.513C253.303 411.427 254.805 415.433 252.452 417.741C215.76 453.739 159.717 466.382 109.275 445.385C41.9983 417.381 10.1622 340.14 38.1666 272.864L128.472 55.9181C132.206 46.9479 142.505 42.7031 151.475 46.437C160.445 50.1709 164.69 60.4696 160.956 69.4398L70.6505 286.386C50.1139 335.722 73.4604 392.365 122.796 412.901C158.194 427.636 197.354 419.78 224.24 395.943C226.328 394.092 229.687 394.702 231.249 397.014C232.222 398.452 233.324 399.848 234.567 401.186L234.819 401.458L235.081 401.719C239.563 406.202 244.773 408.965 250.136 410.513Z" fill="#030679"/>
<path fill-rule="evenodd" clip-rule="evenodd" d="M346.649 168.154L345.956 168.102C345.85 168.094 345.746 168.087 345.644 168.082C336.052 167.607 327.28 162.852 321.474 155.619L238.037 356.062C236.402 359.991 234.505 363.731 232.374 367.27C241.324 368.81 249.486 373.994 254.447 381.334C254.599 381.558 254.775 381.788 254.985 382.023C255.368 382.39 255.75 382.666 256.149 382.894C256.597 383.149 257.166 383.399 257.9 383.611C268.873 386.777 276.653 395.117 279.874 404.592C283.238 414.488 282.122 427.858 272.061 437.728C227.626 481.323 159.701 496.705 98.5144 471.235C16.9615 437.288 -21.6305 343.657 12.3167 262.104L102.623 45.1578C112.299 21.9111 138.989 10.9104 162.236 20.5871C174.686 25.7697 183.624 35.8325 187.754 47.6327C220.682 4.84733 279.374 -12.3224 331.588 9.41197C388.271 33.0071 417.77 94.2861 403.178 152.086C400.095 164.295 390.815 171.947 381.446 174.781C372.447 177.505 362.267 176.29 353.865 170.712C353.841 170.696 353.817 170.68 353.792 170.664L353.359 170.382L352.937 170.084C351.124 168.803 349.314 168.223 347.344 168.172L346.649 168.154ZM234.819 401.458L234.567 401.186C233.722 400.276 232.942 399.34 232.224 398.382C232.22 398.377 232.217 398.372 232.213 398.367C231.878 397.921 231.557 397.469 231.249 397.014C229.687 394.702 226.328 394.092 224.24 395.943C197.354 419.78 158.194 427.636 122.796 412.901C73.4604 392.365 50.1139 335.722 70.6505 286.386L160.956 69.4398C164.69 60.4696 160.445 50.1709 151.475 46.437C142.505 42.703 132.206 46.9479 128.472 55.918L38.1666 272.864C10.1622 340.14 41.9983 417.381 109.275 445.385C151.316 462.885 197.248 457.017 232.625 433.735C233.046 433.459 233.465 433.18 233.882 432.898C238.248 429.953 242.447 426.74 246.453 423.271C248.505 421.494 250.506 419.65 252.452 417.741C254.805 415.433 253.302 411.426 250.136 410.512C247.331 409.703 244.568 408.561 241.929 407.014C239.522 405.604 237.219 403.857 235.081 401.719L234.819 401.458ZM166.109 326.121L166.114 326.11C166.112 326.113 166.11 326.117 166.109 326.121ZM378.248 133.17C378.209 133.503 378.169 133.836 378.126 134.169C378.113 134.27 378.1 134.37 378.087 134.471C377.616 138.064 376.932 141.657 376.03 145.232C375.312 148.073 371.793 149.006 369.352 147.385L369.295 147.347C369.267 147.329 369.24 147.311 369.212 147.292L369.089 147.212C362.909 142.848 355.761 140.379 348.064 140.181C347.718 140.155 347.373 140.133 347.028 140.116C344.13 139.973 341.843 137.166 342.438 134.326C348.142 107.113 333.918 78.8235 307.306 67.7458C277.191 55.2104 242.617 69.4609 230.082 99.5751L140.259 315.361C135.725 326.253 140.879 338.759 151.772 343.293C162.664 347.827 175.169 342.673 179.704 331.78L270.009 114.834C273.743 105.864 284.042 101.619 293.012 105.353C301.982 109.087 306.227 119.386 302.493 128.356L212.187 345.302C200.186 374.135 167.082 387.779 138.25 375.777C109.417 363.775 95.773 330.672 107.775 301.839L197.598 86.0533C217.601 37.9988 272.773 15.2587 320.827 35.2619C356.399 50.069 378.1 84.1471 378.86 120.344C378.866 120.636 378.871 120.928 378.874 121.221C378.92 125.187 378.715 129.178 378.248 133.17Z" fill="white"/>
<path d="M445.874 365C446.965 367.836 447.511 370.453 447.511 372.853C447.511 378.524 445.656 383.214 441.948 386.923C438.24 390.413 433.986 392.158 429.187 392.158C425.26 392.158 421.661 390.958 418.389 388.559C415.335 386.159 412.936 382.887 411.191 378.743L394.176 339.151H296.668L279.653 379.07C278.126 383.214 275.727 386.487 272.455 388.886C269.401 391.067 266.02 392.158 262.311 392.158C256.64 392.158 252.277 390.631 249.223 387.577C246.387 384.523 244.969 380.379 244.969 375.143C244.969 373.18 245.296 371.108 245.951 368.926L327.425 173.256C329.171 168.894 331.788 165.513 335.278 163.113C338.769 160.714 342.695 159.732 347.058 160.168C350.984 160.168 354.584 161.368 357.856 163.767C361.346 165.949 363.855 169.112 365.382 173.256L445.874 365ZM378.143 301.522L345.095 224.955L312.701 301.522H378.143Z" fill="#7C96F6"/>
<path d="M562.58 212.194C577.632 212.194 591.265 216.121 603.481 223.974C615.697 231.608 625.295 242.297 632.275 256.04C639.474 269.783 643.073 285.38 643.073 302.831C643.073 320.282 639.583 335.988 632.602 349.948C625.622 363.691 616.024 374.489 603.808 382.342C591.811 389.977 578.504 393.794 563.889 393.794C553.418 393.794 543.493 391.722 534.113 387.577C524.951 383.214 517.316 377.979 511.209 371.871V373.835C511.209 379.506 509.354 384.305 505.646 388.232C501.938 391.94 497.248 393.794 491.576 393.794C485.905 393.794 481.215 391.94 477.506 388.232C473.798 384.523 471.944 379.724 471.944 373.835V168.348C471.944 162.677 473.798 157.987 477.506 154.278C481.215 150.352 485.905 148.389 491.576 148.389C497.248 148.389 501.938 150.352 505.646 154.278C509.354 157.987 511.209 162.677 511.209 168.348V236.735C516.444 230.191 523.751 224.519 533.131 219.72C542.511 214.703 552.328 212.194 562.58 212.194ZM557.672 357.801C571.633 357.801 583.085 352.566 592.029 342.095C600.972 331.625 605.444 318.537 605.444 302.831C605.444 287.125 600.972 274.145 592.029 263.893C583.303 253.422 571.851 248.187 557.672 248.187C543.493 248.187 531.932 253.422 522.988 263.893C514.044 274.145 509.573 287.125 509.573 302.831C509.573 318.537 514.044 331.625 522.988 342.095C531.932 352.566 543.493 357.801 557.672 357.801Z" fill="#7C96F6"/>
<path d="M766.773 212.194C773.317 212.194 778.77 214.048 783.133 217.757C787.714 221.465 790.004 225.828 790.004 230.845C790.004 237.607 788.259 242.733 784.769 246.224C781.279 249.496 777.134 251.132 772.335 251.132C769.063 251.132 765.355 250.368 761.21 248.841C760.556 248.623 759.029 248.187 756.629 247.533C754.448 246.878 752.048 246.551 749.431 246.551C743.759 246.551 738.306 248.296 733.07 251.786C727.835 255.276 723.472 260.621 719.982 267.819C716.71 274.8 715.074 283.198 715.074 293.014V370.562C715.074 376.234 713.22 381.033 709.511 384.96C705.803 388.668 701.113 390.522 695.442 390.522C689.77 390.522 685.08 388.668 681.372 384.96C677.663 381.033 675.809 376.234 675.809 370.562V235.426C675.809 229.754 677.663 225.064 681.372 221.356C685.08 217.429 689.77 215.466 695.442 215.466C701.113 215.466 705.803 217.429 709.511 221.356C713.22 225.064 715.074 229.754 715.074 235.426V239.68C720.091 230.736 727.29 223.974 736.67 219.393C746.05 214.594 756.084 212.194 766.773 212.194Z" fill="#7C96F6"/>
<path d="M854.659 370.562C854.659 376.234 852.804 381.033 849.096 384.96C845.388 388.668 840.698 390.522 835.026 390.522C829.355 390.522 824.665 388.668 820.956 384.96C817.248 381.033 815.394 376.234 815.394 370.562V235.426C815.394 229.754 817.248 225.064 820.956 221.356C824.665 217.429 829.355 215.466 835.026 215.466C840.698 215.466 845.388 217.429 849.096 221.356C852.804 225.064 854.659 229.754 854.659 235.426V370.562ZM834.699 194.198C827.282 194.198 822.047 192.998 818.993 190.598C815.939 188.199 814.412 183.945 814.412 177.837V171.62C814.412 165.513 816.048 161.259 819.32 158.859C822.592 156.46 827.828 155.26 835.026 155.26C842.661 155.26 848.005 156.46 851.059 158.859C854.113 161.259 855.64 165.513 855.64 171.62V177.837C855.64 184.163 854.004 188.526 850.732 190.926C847.678 193.107 842.334 194.198 834.699 194.198Z" fill="#7C96F6"/>
<path d="M985.976 212.194C992.52 212.194 997.974 214.048 1002.34 217.757C1006.92 221.465 1009.21 225.828 1009.21 230.845C1009.21 237.607 1007.46 242.733 1003.97 246.224C1000.48 249.496 996.338 251.132 991.539 251.132C988.266 251.132 984.558 250.368 980.413 248.841C979.759 248.623 978.232 248.187 975.833 247.533C973.651 246.878 971.252 246.551 968.634 246.551C962.962 246.551 957.509 248.296 952.274 251.786C947.038 255.276 942.676 260.621 939.185 267.819C935.913 274.8 934.277 283.198 934.277 293.014V370.562C934.277 376.234 932.423 381.033 928.715 384.96C925.006 388.668 920.316 390.522 914.645 390.522C908.973 390.522 904.283 388.668 900.575 384.96C896.867 381.033 895.012 376.234 895.012 370.562V235.426C895.012 229.754 896.867 225.064 900.575 221.356C904.283 217.429 908.973 215.466 914.645 215.466C920.316 215.466 925.006 217.429 928.715 221.356C932.423 225.064 934.277 229.754 934.277 235.426V239.68C939.294 230.736 946.493 223.974 955.873 219.393C965.253 214.594 975.287 212.194 985.976 212.194Z" fill="#7C96F6"/>
<path fill-rule="evenodd" clip-rule="evenodd" d="M451.944 327.787V168.348C451.944 157.941 455.518 148.092 463.163 140.339C470.831 132.331 480.804 128.389 491.576 128.389C502.348 128.389 512.322 132.332 519.99 140.34C527.635 148.093 531.209 157.941 531.209 168.348V198.512C541.184 194.343 551.683 192.194 562.58 192.194C581.276 192.194 598.653 197.122 614.189 207.081C629.619 216.753 641.565 230.211 650.049 246.87C652.257 251.097 654.175 255.441 655.809 259.896V235.426C655.809 225.018 659.383 215.169 667.028 207.417C674.696 199.409 684.669 195.466 695.442 195.466C705.082 195.466 714.082 198.624 721.363 205.027C723.404 203.76 725.525 202.585 727.724 201.504C739.919 195.297 753.026 192.194 766.773 192.194C777.267 192.194 787.447 195.256 795.903 202.363C798.862 204.785 801.511 207.58 803.692 210.726C804.589 209.586 805.562 208.482 806.612 207.418C806.817 207.203 807.025 206.991 807.234 206.782C807.033 206.633 806.834 206.48 806.637 206.325C796.527 198.382 794.412 186.539 794.412 177.837V171.62C794.412 162.487 796.879 150.515 807.493 142.731C815.967 136.517 826.482 135.26 835.026 135.26C843.472 135.26 854.758 136.33 863.416 143.133C873.525 151.076 875.64 162.918 875.64 171.62V177.837C875.64 186.801 873.376 198.921 862.864 206.828C863.058 207.022 863.25 207.218 863.441 207.418C871.085 215.17 874.659 225.018 874.659 235.426V370.562C874.659 381.058 871.04 390.853 863.636 398.692L863.44 398.9L863.238 399.102C855.455 406.885 845.525 410.522 835.026 410.522C824.527 410.522 814.597 406.885 806.814 399.102L806.612 398.9L806.416 398.692C799.012 390.853 795.394 381.058 795.394 370.562V263.404C788.753 268.479 780.851 271.132 772.335 271.132C766.22 271.132 760.282 269.766 754.784 267.786C754.656 267.748 754.43 267.681 754.08 267.581C753.424 267.394 752.527 267.144 751.367 266.828L751.124 266.761L750.882 266.689C750.82 266.67 750.386 266.551 749.431 266.551C748.134 266.551 746.488 266.878 744.164 268.427C742.61 269.463 740.368 271.658 738.039 276.42C736.331 280.117 735.074 285.433 735.074 293.014V370.562C735.074 381.058 731.456 390.853 724.052 398.692L723.856 398.9L723.654 399.102C715.87 406.885 705.94 410.522 695.442 410.522C684.943 410.522 675.013 406.885 667.23 399.102L667.028 398.9L666.831 398.692C659.427 390.853 655.809 381.058 655.809 370.562V346.465C654.284 350.703 652.513 354.848 650.491 358.893L650.463 358.949L650.434 359.006C641.948 375.712 630.011 389.274 614.623 399.165L614.585 399.19L614.546 399.215C599.246 408.951 582.197 413.794 563.889 413.794C550.695 413.794 538.011 411.165 526.03 405.871L525.77 405.756L525.514 405.634C523.485 404.668 521.5 403.657 519.561 402.599C511.812 410.227 501.973 413.794 491.576 413.794C481.077 413.794 471.147 410.157 463.364 402.374C461.824 400.834 460.451 399.211 459.239 397.519C458.277 398.744 457.228 399.927 456.09 401.065L455.876 401.279L455.655 401.487C448.486 408.234 439.413 412.158 429.187 412.158C420.857 412.158 413.142 409.512 406.562 404.687L406.294 404.49L406.033 404.285C399.938 399.497 395.642 393.324 392.79 386.579L381.002 359.151H309.884L298.219 386.518C295.437 393.788 290.842 400.203 284.282 405.014L284.181 405.088L284.079 405.161C277.677 409.734 270.242 412.158 262.311 412.158C253.061 412.158 242.951 409.59 235.081 401.719L234.819 401.458L234.567 401.186C227.477 393.551 224.969 384.078 224.969 375.143C224.969 370.951 225.668 366.934 226.794 363.179L227.091 362.191L308.915 165.681C311.965 158.13 316.899 151.478 323.948 146.632C331.203 141.644 339.521 139.536 348.064 140.181C355.761 140.379 362.909 142.848 369.089 147.212C376.134 151.807 381.082 158.31 383.968 165.861L451.944 327.787ZM365.382 173.256L445.874 365C446.965 367.836 447.511 370.453 447.511 372.853C447.511 378.524 445.656 383.214 441.948 386.923C438.24 390.413 433.986 392.158 429.187 392.158C425.26 392.158 421.661 390.958 418.389 388.559C415.335 386.159 412.936 382.887 411.191 378.743L394.176 339.151H296.668L279.653 379.07C278.126 383.214 275.727 386.487 272.455 388.886C269.401 391.067 266.02 392.158 262.311 392.158C256.64 392.158 252.277 390.631 249.223 387.577C246.387 384.523 244.969 380.379 244.969 375.143C244.969 373.18 245.296 371.108 245.951 368.926L327.425 173.256C329.171 168.894 331.788 165.513 335.278 163.113C338.769 160.714 342.695 159.732 347.058 160.168C350.984 160.168 354.584 161.368 357.856 163.767C361.346 165.949 363.855 169.112 365.382 173.256ZM502.349 390.88C503.523 390.138 504.622 389.256 505.646 388.232C509.354 384.305 511.209 379.506 511.209 373.835V371.871C511.873 372.536 512.556 373.19 513.257 373.835C517.923 378.122 523.391 381.952 529.661 385.324C531.103 386.099 532.587 386.85 534.113 387.577C543.493 391.722 553.418 393.794 563.889 393.794C578.504 393.794 591.811 389.977 603.808 382.342C616.024 374.489 625.622 363.691 632.602 349.948C639.583 335.988 643.073 320.282 643.073 302.831C643.073 285.38 639.474 269.783 632.275 256.04C625.295 242.297 615.697 231.608 603.481 223.974C591.265 216.121 577.632 212.194 562.58 212.194C552.328 212.194 542.511 214.703 533.131 219.72C532.48 220.053 531.84 220.39 531.209 220.732C522.747 225.31 516.081 230.645 511.209 236.735V168.348C511.209 162.677 509.354 157.987 505.646 154.278C501.938 150.352 497.248 148.389 491.576 148.389C485.905 148.389 481.215 150.352 477.506 154.278C473.798 157.987 471.944 162.677 471.944 168.348V373.835C471.944 379.724 473.798 384.523 477.506 388.232C481.215 391.94 485.905 393.794 491.576 393.794C495.681 393.794 499.272 392.823 502.349 390.88ZM522.988 263.893C514.044 274.145 509.573 287.125 509.573 302.831C509.573 318.537 514.044 331.625 522.988 342.095C531.932 352.566 543.493 357.801 557.672 357.801C571.633 357.801 583.085 352.566 592.029 342.095C600.972 331.625 605.444 318.537 605.444 302.831C605.444 287.125 600.972 274.145 592.029 263.893C583.303 253.422 571.851 248.187 557.672 248.187C543.493 248.187 531.932 253.422 522.988 263.893ZM729.8 254.307C730.85 253.38 731.94 252.54 733.07 251.786C738.306 248.296 743.759 246.551 749.431 246.551C752.048 246.551 754.448 246.878 756.629 247.533C759.029 248.187 760.556 248.623 761.21 248.841C765.355 250.368 769.063 251.132 772.335 251.132C777.134 251.132 781.279 249.496 784.769 246.224C788.259 242.733 790.004 237.607 790.004 230.845C790.004 225.828 787.714 221.465 783.133 217.757C778.77 214.048 773.317 212.194 766.773 212.194C756.084 212.194 746.05 214.594 736.67 219.393C735.314 220.055 734.003 220.763 732.738 221.516C726.699 225.113 721.699 229.75 717.739 235.426C716.791 236.784 715.903 238.202 715.074 239.68V235.426C715.074 229.754 713.22 225.064 709.511 221.356C708.363 220.14 707.12 219.112 705.784 218.273C702.804 216.402 699.357 215.466 695.442 215.466C689.77 215.466 685.08 217.429 681.372 221.356C677.663 225.064 675.809 229.754 675.809 235.426V370.562C675.809 376.234 677.663 381.033 681.372 384.96C685.08 388.668 689.77 390.522 695.442 390.522C701.113 390.522 705.803 388.668 709.511 384.96C713.22 381.033 715.074 376.234 715.074 370.562V293.014C715.074 287.489 715.592 282.413 716.629 277.787C717.434 274.193 718.552 270.871 719.982 267.819C722.718 262.176 725.991 257.672 729.8 254.307ZM849.096 221.356C845.388 217.429 840.698 215.466 835.026 215.466C829.355 215.466 824.665 217.429 820.956 221.356C817.248 225.064 815.394 229.754 815.394 235.426V370.562C815.394 376.234 817.248 381.033 820.956 384.96C824.665 388.668 829.355 390.522 835.026 390.522C840.698 390.522 845.388 388.668 849.096 384.96C852.804 381.033 854.659 376.234 854.659 370.562V235.426C854.659 229.754 852.804 225.064 849.096 221.356ZM576.809 276.87L576.664 276.697C571.911 270.993 566.19 268.187 557.672 268.187C549.144 268.187 543.212 271.01 538.195 276.883L538.128 276.962L538.059 277.04C532.778 283.094 529.573 291.166 529.573 302.831C529.573 314.485 532.777 322.763 538.195 329.106C543.212 334.978 549.144 337.801 557.672 337.801C565.876 337.801 571.738 335.057 576.821 329.106C582.239 322.763 585.444 314.485 585.444 302.831C585.444 291.166 582.238 283.094 576.957 277.04L576.809 276.87ZM1003.97 246.224C1007.46 242.733 1009.21 237.607 1009.21 230.845C1009.21 225.828 1006.92 221.465 1002.34 217.757C997.974 214.048 992.52 212.194 985.976 212.194C975.287 212.194 965.253 214.594 955.873 219.393C954.517 220.055 953.207 220.763 951.942 221.516C945.903 225.113 940.903 229.75 936.942 235.426C935.994 236.784 935.106 238.202 934.277 239.68V235.426C934.277 229.754 932.423 225.064 928.715 221.356C927.566 220.14 926.324 219.112 924.987 218.273C922.007 216.402 918.56 215.466 914.645 215.466C908.973 215.466 904.283 217.429 900.575 221.356C896.867 225.064 895.012 229.754 895.012 235.426V370.562C895.012 376.234 896.867 381.033 900.575 384.96C904.283 388.668 908.973 390.522 914.645 390.522C920.316 390.522 925.006 388.668 928.715 384.96C932.423 381.033 934.277 376.234 934.277 370.562V293.014C934.277 287.489 934.796 282.413 935.832 277.787C936.637 274.193 937.755 270.871 939.185 267.819C941.922 262.176 945.195 257.671 949.004 254.307C950.053 253.38 951.143 252.54 952.274 251.786C957.509 248.296 962.962 246.551 968.634 246.551C971.252 246.551 973.651 246.878 975.833 247.533C978.232 248.187 979.759 248.623 980.413 248.841C984.558 250.368 988.266 251.132 991.539 251.132C996.338 251.132 1000.48 249.496 1003.97 246.224ZM973.987 267.786C973.859 267.748 973.633 267.681 973.283 267.581C972.627 267.394 971.73 267.144 970.57 266.828L970.327 266.761L970.086 266.689C970.023 266.67 969.59 266.551 968.634 266.551C967.337 266.551 965.691 266.878 963.368 268.427C961.813 269.463 959.572 271.658 957.243 276.42C955.534 280.117 954.277 285.433 954.277 293.014V370.562C954.277 381.058 950.659 390.853 943.255 398.692L943.059 398.9L942.857 399.102C935.073 406.885 925.144 410.522 914.645 410.522C904.146 410.522 894.216 406.885 886.433 399.102L886.231 398.9L886.035 398.692C878.631 390.853 875.012 381.058 875.012 370.562V235.426C875.012 225.018 878.586 215.17 886.23 207.418C893.899 199.409 903.872 195.466 914.645 195.466C924.285 195.466 933.286 198.624 940.567 205.027C942.607 203.76 944.728 202.585 946.927 201.504C959.123 195.297 972.229 192.194 985.976 192.194C996.471 192.194 1006.65 195.256 1015.11 202.363C1023.37 209.122 1029.21 218.797 1029.21 230.845C1029.21 240.904 1026.57 251.911 1018.11 260.366L1017.89 260.594L1017.65 260.814C1010.44 267.574 1001.4 271.132 991.539 271.132C985.423 271.132 979.485 269.766 973.987 267.786ZM345.095 224.955L312.701 301.522H378.143L345.095 224.955ZM345.279 275.85L347.727 281.522H342.879L345.279 275.85ZM850.732 190.926C847.678 193.107 842.334 194.198 834.699 194.198C827.282 194.198 822.047 192.998 818.993 190.598C815.939 188.199 814.412 183.945 814.412 177.837V171.62C814.412 165.513 816.048 161.259 819.32 158.859C822.592 156.46 827.828 155.26 835.026 155.26C842.661 155.26 848.005 156.46 851.059 158.859C854.113 161.259 855.64 165.513 855.64 171.62V177.837C855.64 184.163 854.004 188.526 850.732 190.926Z" fill="white"/>
<path d="M1014.93 390.195C1008.6 390.195 1003.69 388.559 1000.2 385.287C996.93 381.797 995.294 376.888 995.294 370.562V365C995.294 358.674 996.93 353.875 1000.2 350.603C1003.69 347.113 1008.6 345.367 1014.93 345.367H1019.18C1025.51 345.367 1030.31 347.113 1033.58 350.603C1037.07 353.875 1038.81 358.674 1038.81 365V370.562C1038.81 376.888 1037.07 381.797 1033.58 385.287C1030.31 388.559 1025.51 390.195 1019.18 390.195H1014.93Z" fill="#030679"/>
<path d="M1207.99 359.437C1210.82 362.928 1212.24 366.854 1212.24 371.217C1212.24 376.67 1210.17 381.36 1206.02 385.287C1201.88 389.213 1197.3 391.176 1192.28 391.176C1185.95 391.176 1180.61 388.341 1176.25 382.669L1136.98 333.915L1098.7 382.669C1096.74 385.287 1094.34 387.359 1091.5 388.886C1088.88 390.195 1086.05 390.849 1082.99 390.849C1078.41 390.849 1074.05 389.104 1069.9 385.614C1065.76 382.124 1063.69 378.088 1063.69 373.507C1063.69 369.145 1065.32 365 1068.6 361.073L1114.08 305.448L1066.96 246.878C1064.12 243.388 1062.71 239.461 1062.71 235.099C1062.71 229.645 1064.67 225.064 1068.6 221.356C1072.74 217.429 1077.43 215.466 1082.67 215.466C1088.99 215.466 1094.34 218.193 1098.7 223.646L1138.95 273.709L1176.25 224.301C1180.39 218.411 1185.63 215.466 1191.95 215.466C1197.19 215.466 1201.55 217.32 1205.04 221.029C1208.75 224.519 1210.6 228.554 1210.6 233.135C1210.6 237.934 1209.08 242.188 1206.02 245.896L1160.87 300.867L1207.99 359.437Z" fill="#030679"/>
<path d="M1368.42 215.466C1374.09 215.466 1378.78 217.429 1382.49 221.356C1386.2 225.064 1388.05 229.754 1388.05 235.426V374.489C1388.05 402.847 1380.42 423.461 1365.15 436.331C1349.88 449.419 1329.48 455.964 1303.96 455.964C1296.54 455.964 1288.91 455.309 1281.05 454C1273.42 452.91 1267.2 451.383 1262.4 449.419C1251.71 444.838 1246.37 438.512 1246.37 430.441C1246.37 428.914 1246.7 427.169 1247.35 425.206C1248.66 420.407 1250.84 416.699 1253.9 414.081C1257.17 411.681 1260.66 410.482 1264.37 410.482C1266.55 410.482 1268.62 410.809 1270.58 411.463C1272.11 412.118 1274.73 413.208 1278.44 414.735C1282.36 416.262 1286.4 417.462 1290.54 418.335C1294.9 419.425 1299.38 419.971 1303.96 419.971C1319.45 419.971 1330.79 416.59 1337.99 409.827C1345.4 403.283 1349.11 391.94 1349.11 375.798V372.526C1337.77 386.705 1320.1 393.794 1296.1 393.794C1284.76 393.794 1274.73 391.177 1266 385.941C1257.28 380.488 1250.51 373.071 1245.71 363.691C1240.92 354.093 1238.52 343.186 1238.52 330.97V235.426C1238.52 229.754 1240.37 225.064 1244.08 221.356C1247.79 217.429 1252.48 215.466 1258.15 215.466C1263.82 215.466 1268.51 217.429 1272.22 221.356C1275.93 225.064 1277.78 229.754 1277.78 235.426V319.191C1277.78 332.934 1280.73 342.859 1286.62 348.967C1292.72 354.856 1301.56 357.801 1313.12 357.801C1324.46 357.801 1333.19 354.529 1339.3 347.985C1345.62 341.223 1348.79 331.625 1348.79 319.191V235.426C1348.79 229.754 1350.64 225.064 1354.35 221.356C1358.06 217.429 1362.75 215.466 1368.42 215.466Z" fill="#030679"/>
<path d="M1542.14 354.529C1547.37 354.529 1551.73 356.274 1555.22 359.765C1558.72 363.037 1560.46 367.29 1560.46 372.526C1560.46 377.543 1558.72 381.797 1555.22 385.287C1551.73 388.777 1547.37 390.522 1542.14 390.522H1436.78C1431.76 390.522 1427.5 388.777 1424.01 385.287C1420.74 381.578 1419.11 377.652 1419.11 373.507C1419.11 369.799 1419.54 366.745 1420.42 364.345C1421.29 361.728 1422.92 358.783 1425.32 355.511L1503.2 254.731H1439.72C1434.49 254.731 1430.12 252.986 1426.63 249.496C1423.14 246.006 1421.4 241.643 1421.4 236.407C1421.4 231.39 1423.14 227.246 1426.63 223.974C1430.12 220.483 1434.49 218.738 1439.72 218.738H1540.5C1545.3 218.738 1549.33 220.483 1552.61 223.974C1556.1 227.246 1557.84 231.39 1557.84 236.407C1557.84 239.68 1557.52 242.515 1556.86 244.915C1556.21 247.096 1554.68 249.714 1552.28 252.768L1473.75 354.529H1542.14Z" fill="#030679"/>
<path fill-rule="evenodd" clip-rule="evenodd" d="M986.053 399.436L985.611 398.966C977.864 390.702 975.294 380.289 975.294 370.562V365C975.294 355.363 977.83 344.69 986.06 336.461C994.279 328.242 1004.86 325.367 1014.93 325.367H1019.18C1028.99 325.367 1039.61 328.114 1047.72 336.457C1050.81 339.456 1053.13 342.799 1054.83 346.318L1088.33 305.346L1051.4 259.446C1045.79 252.519 1042.71 244.187 1042.71 235.099C1042.71 224.208 1046.89 214.353 1054.85 206.826C1062.34 199.735 1071.83 195.466 1082.67 195.466C1095.74 195.466 1106.59 201.508 1114.3 211.131C1114.31 211.138 1114.31 211.145 1114.32 211.152L1138.45 241.172L1160.11 212.482C1167.4 202.292 1178.28 195.466 1191.95 195.466C1202.33 195.466 1211.85 199.321 1219.18 206.878C1221.29 208.92 1223.17 211.165 1224.76 213.593C1226.17 211.42 1227.83 209.353 1229.73 207.417C1237.4 199.409 1247.38 195.466 1258.15 195.466C1268.92 195.466 1278.89 199.409 1286.56 207.418C1294.21 215.17 1297.78 225.018 1297.78 235.426V319.191C1297.78 329.845 1299.97 333.781 1300.82 334.859C1302.22 336.04 1305.48 337.801 1313.12 337.801C1320.49 337.801 1323.3 335.807 1324.68 334.339L1324.68 334.33L1324.69 334.322C1326.5 332.384 1328.79 328.325 1328.79 319.191V235.426C1328.79 225.018 1332.36 215.17 1340 207.417C1347.67 199.409 1357.65 195.466 1368.42 195.466C1379.19 195.466 1389.16 199.409 1396.83 207.417C1400.52 211.158 1403.26 215.388 1405.11 219.933C1406.95 216.167 1409.49 212.686 1412.72 209.606C1420.17 202.273 1429.64 198.738 1439.72 198.738H1540.5C1550.59 198.738 1559.74 202.592 1566.75 209.83C1574.18 217.027 1577.84 226.374 1577.84 236.407C1577.84 240.933 1577.4 245.621 1576.16 250.177L1576.09 250.42L1576.02 250.662C1574.32 256.32 1571.06 261.227 1568.06 265.05C1568.05 265.075 1568.03 265.099 1568.01 265.124L1514.45 334.529H1542.14C1552.22 334.529 1561.69 338.064 1569.14 345.398C1576.9 352.801 1580.46 362.444 1580.46 372.526C1580.46 382.749 1576.68 392.119 1569.37 399.429C1561.88 406.915 1552.32 410.522 1542.14 410.522H1436.78C1426.55 410.522 1417.18 406.739 1409.87 399.429L1409.43 398.987L1409.02 398.519C1408.19 397.578 1407.39 396.598 1406.64 395.583C1403.43 418.235 1394.57 437.66 1378.1 451.57C1358.32 468.49 1332.9 475.964 1303.96 475.964C1295.44 475.964 1286.78 475.218 1277.99 473.766C1269.53 472.544 1261.63 470.714 1254.83 467.93L1254.68 467.868L1254.52 467.802C1240.27 461.692 1226.37 449.95 1226.37 430.441C1226.37 426.383 1227.17 422.632 1228.2 419.42C1230.35 411.864 1234.29 404.546 1240.88 398.896L1241.46 398.402L1242.07 397.953C1243.21 397.118 1244.38 396.343 1245.6 395.632C1240.11 390.835 1235.4 385.291 1231.47 379.059C1229.86 387.046 1225.8 394.104 1219.78 399.806C1212.47 406.728 1203.13 411.177 1192.28 411.177C1178.96 411.177 1168.13 404.808 1160.55 395.063L1137.18 366.047L1114.55 394.873C1110.9 399.68 1106.34 403.612 1100.98 406.495L1100.72 406.639L1100.44 406.775C1094.93 409.533 1089.01 410.849 1082.99 410.849C1072.87 410.849 1064.08 406.857 1057.02 400.912C1054.97 399.184 1053.07 397.261 1051.38 395.151C1050.3 396.633 1049.08 398.064 1047.72 399.429C1039.49 407.659 1028.82 410.195 1019.18 410.195H1014.93C1005.2 410.195 994.787 407.625 986.523 399.878L986.053 399.436ZM1098.7 382.669L1136.98 333.915L1176.25 382.669C1180.61 388.341 1185.95 391.177 1192.28 391.177C1197.3 391.177 1201.88 389.213 1206.02 385.287C1210.17 381.36 1212.24 376.67 1212.24 371.217C1212.24 366.854 1210.82 362.928 1207.99 359.437L1160.87 300.867L1206.02 245.896C1209.08 242.188 1210.6 237.934 1210.6 233.135C1210.6 228.554 1208.75 224.519 1205.04 221.029C1201.55 217.32 1197.19 215.466 1191.95 215.466C1185.63 215.466 1180.39 218.411 1176.25 224.301L1138.95 273.709L1098.7 223.646C1094.34 218.193 1088.99 215.466 1082.67 215.466C1077.43 215.466 1072.74 217.429 1068.6 221.356C1064.67 225.064 1062.71 229.645 1062.71 235.099C1062.71 239.461 1064.12 243.388 1066.96 246.878L1114.08 305.448L1068.6 361.073C1065.32 365 1063.69 369.145 1063.69 373.507C1063.69 378.088 1065.76 382.124 1069.9 385.614C1074.05 389.104 1078.41 390.849 1082.99 390.849C1086.05 390.849 1088.88 390.195 1091.5 388.886C1094.34 387.359 1096.74 385.287 1098.7 382.669ZM1186.64 300.999L1219 341.221C1218.68 337.854 1218.52 334.435 1218.52 330.97V262.196L1186.64 300.999ZM1343.51 402.919C1341.98 405.626 1340.14 407.929 1337.99 409.827C1330.79 416.59 1319.45 419.971 1303.96 419.971C1299.38 419.971 1294.9 419.425 1290.54 418.335C1286.4 417.462 1282.36 416.262 1278.44 414.735C1274.73 413.208 1272.11 412.118 1270.58 411.463C1268.62 410.809 1266.55 410.482 1264.37 410.482C1260.66 410.482 1257.17 411.681 1253.9 414.081C1250.84 416.699 1248.66 420.407 1247.35 425.206C1246.7 427.169 1246.37 428.914 1246.37 430.441C1246.37 438.512 1251.71 444.839 1262.4 449.419C1267.2 451.383 1273.42 452.91 1281.05 454C1288.91 455.309 1296.54 455.964 1303.96 455.964C1329.48 455.964 1349.88 449.419 1365.15 436.331C1380.42 423.461 1388.05 402.847 1388.05 374.489V235.426C1388.05 229.754 1386.2 225.064 1382.49 221.356C1378.78 217.429 1374.09 215.466 1368.42 215.466C1362.75 215.466 1358.06 217.429 1354.35 221.356C1350.64 225.064 1348.79 229.754 1348.79 235.426V319.191C1348.79 331.625 1345.62 341.223 1339.3 347.985C1333.19 354.529 1324.46 357.801 1313.12 357.801C1301.56 357.801 1292.72 354.857 1286.62 348.967C1280.73 342.859 1277.78 332.934 1277.78 319.191V235.426C1277.78 229.754 1275.93 225.064 1272.22 221.356C1268.51 217.429 1263.82 215.466 1258.15 215.466C1252.48 215.466 1247.79 217.429 1244.08 221.356C1240.37 225.064 1238.52 229.754 1238.52 235.426V330.97C1238.52 343.186 1240.92 354.093 1245.71 363.691C1250.51 373.071 1257.28 380.488 1266 385.941C1274.73 391.177 1284.76 393.794 1296.1 393.794C1308.34 393.794 1318.93 391.951 1327.87 388.266C1335.07 385.301 1341.2 381.146 1346.26 375.798C1347.25 374.753 1348.2 373.662 1349.11 372.526V375.798C1349.11 387.256 1347.24 396.297 1343.51 402.919ZM1420.42 364.346C1419.54 366.745 1419.11 369.799 1419.11 373.507C1419.11 377.652 1420.74 381.578 1424.01 385.287C1427.5 388.777 1431.76 390.522 1436.78 390.522H1542.14C1547.37 390.522 1551.73 388.777 1555.22 385.287C1558.71 381.797 1560.46 377.543 1560.46 372.526C1560.46 367.29 1558.71 363.037 1555.22 359.765C1551.73 356.274 1547.37 354.529 1542.14 354.529H1473.75L1552.28 252.768C1554.68 249.714 1556.21 247.096 1556.86 244.915C1557.52 242.515 1557.84 239.68 1557.84 236.407C1557.84 231.39 1556.1 227.246 1552.61 223.974C1549.33 220.483 1545.3 218.738 1540.5 218.738H1439.72C1434.49 218.738 1430.12 220.483 1426.63 223.974C1423.14 227.246 1421.4 231.39 1421.4 236.407C1421.4 241.643 1423.14 246.006 1426.63 249.496C1430.12 252.986 1434.49 254.731 1439.72 254.731H1503.2L1425.32 355.511C1422.92 358.783 1421.29 361.728 1420.42 364.346ZM1462.47 274.731H1439.72C1429.54 274.731 1419.98 271.124 1412.49 263.638C1410.82 261.965 1409.34 260.189 1408.05 258.325V345.289C1408.43 344.745 1408.81 344.21 1409.2 343.684L1409.34 343.481L1462.47 274.731ZM1033.58 350.603C1030.31 347.113 1025.51 345.367 1019.18 345.367H1014.93C1008.6 345.367 1003.69 347.113 1000.2 350.603C996.93 353.875 995.294 358.674 995.294 365V370.562C995.294 376.888 996.93 381.797 1000.2 385.287C1003.69 388.559 1008.6 390.195 1014.93 390.195H1019.18C1025.51 390.195 1030.31 388.559 1033.58 385.287C1037.07 381.797 1038.81 376.888 1038.81 370.562V365C1038.81 358.674 1037.07 353.875 1033.58 350.603Z" fill="white"/>
</svg>
