<svg width="154" height="34" viewBox="0 0 154 34" fill="none" xmlns="http://www.w3.org/2000/svg">
<path fill-rule="evenodd" clip-rule="evenodd" d="M33.8054 16.9028C33.8054 26.2381 26.2379 33.8056 16.9026 33.8056C7.56728 33.8056 0 26.2381 0 16.9028C0 7.56728 7.56728 0 16.9026 0C26.2379 0 33.8054 7.56728 33.8054 16.9028ZM12.8871 19.8588C12.5128 20.1856 12.0993 20.9907 12.2094 22.067C12.3025 22.9777 13.1614 24.5335 15.023 24.5335C16.0344 24.5335 16.691 24.2527 17.3013 23.6673C18.1924 22.8127 18.545 21.8526 18.7597 20.722C18.8691 20.1562 18.9196 19.582 18.9246 19.0121L18.9256 18.8548C18.9208 18.681 18.9173 18.5358 18.9173 18.5318C18.9173 18.5282 18.9325 18.3476 18.9515 18.1387C18.9515 18.1387 18.9766 17.8667 19.0647 17.578C19.1499 17.2867 19.2837 17.0289 19.4608 16.7762C19.6353 16.5255 19.8348 16.3093 19.8348 16.3093C19.9761 16.1553 20.2214 16.1416 20.379 16.2794L21.159 16.9569C21.3173 17.0939 21.4792 17.0383 21.5185 16.833L21.8357 15.1988C21.876 14.9937 21.9417 14.6576 21.9816 14.4525L22.2998 12.816C22.3396 12.6107 22.2099 12.4983 22.0128 12.5663L20.4384 13.1088C20.2412 13.1765 19.9175 13.2887 19.7198 13.3564L18.1429 13.8994C17.9455 13.9677 17.9133 14.1356 18.0703 14.2726L18.8483 14.9478C19.0058 15.0853 19.0309 15.3312 18.9038 15.4944C18.7767 15.6578 18.3971 15.9879 18.3098 15.7976L17.508 14.4287C17.3875 14.2582 17.4132 13.9996 17.5646 13.8555L18.5993 12.87C18.7508 12.7259 18.71 12.5594 18.5095 12.5008L16.352 11.8673C16.1516 11.8084 15.8228 11.712 15.6223 11.6534L13.4659 11.0193C13.2652 10.9602 13.1418 11.0784 13.1908 11.2814L13.7214 13.4658C13.7706 13.6693 13.8513 14.0014 13.9002 14.2051L14.4298 16.3903C14.479 16.5938 14.6429 16.642 14.7941 16.4976L15.8791 15.4634C16.0303 15.319 16.2561 15.3386 16.3805 15.5063C16.3805 15.5063 17.2348 16.6554 17.4725 17.5724C17.5971 18.0459 17.672 18.5389 17.7019 19.043C17.7174 19.2595 17.7176 19.3115 17.7176 19.3115C17.7184 19.5211 17.6435 19.5386 17.5509 19.3511C17.5509 19.3511 17.5119 19.2724 17.3611 19.0768C17.2026 18.8652 16.998 18.6797 16.7824 18.5351C16.5682 18.3902 16.4789 18.3463 16.4789 18.3463C16.2917 18.2539 16.2049 18.0208 16.2873 17.8284L16.4325 17.4872C16.5144 17.2943 16.4112 17.1578 16.2041 17.1829L15.4356 17.2763C15.2283 17.3014 14.8885 17.3433 14.6805 17.3684L13.9134 17.4623C13.7051 17.4877 13.6386 17.645 13.7645 17.8119L14.2293 18.4303C14.3554 18.5972 14.5604 18.8708 14.6863 19.038L15.1509 19.6566C15.2767 19.8235 15.446 19.803 15.5282 19.6106L15.6751 19.2663C15.7568 19.0737 15.9834 18.9789 16.179 19.0547C16.179 19.0547 16.2209 19.0717 16.3899 19.1664C16.5599 19.2615 16.7068 19.3711 16.8367 19.5117C16.9663 19.652 17.078 19.8217 17.1787 20.0052C17.2277 20.0993 17.2794 20.1952 17.3134 20.2807C17.3502 20.3701 17.3814 20.4642 17.402 20.5619C17.4941 20.9526 17.4916 21.3855 17.3665 21.7866C17.06 22.7729 16.2216 23.5661 15.023 23.5661C14.0177 23.5661 13.1482 22.952 12.7676 22.0574C12.5276 21.4923 12.4656 20.6702 12.9246 19.8799C12.93 19.8715 12.9452 19.8456 12.9396 19.8385C12.932 19.8291 12.897 19.8499 12.8871 19.8588Z" fill="#303031"/>
<path d="M47.62 16.11C47.3533 15.7527 47.0653 15.5047 46.756 15.366C46.4467 15.222 46.1 15.15 45.716 15.15C44.964 15.15 44.3853 15.4193 43.98 15.958C43.5747 16.4967 43.372 17.2647 43.372 18.262C43.372 18.79 43.4173 19.2433 43.508 19.622C43.5987 19.9953 43.732 20.3047 43.908 20.55C44.084 20.79 44.3 20.966 44.556 21.078C44.812 21.19 45.1027 21.246 45.428 21.246C45.8973 21.246 46.3053 21.1393 46.652 20.926C47.004 20.7127 47.3267 20.4113 47.62 20.022V16.11ZM49.044 10.502V22.286H48.196C47.9933 22.286 47.8653 22.1873 47.812 21.99L47.684 21.006C47.3373 21.422 46.9427 21.758 46.5 22.014C46.0573 22.27 45.5453 22.398 44.964 22.398C44.5 22.398 44.0787 22.31 43.7 22.134C43.3213 21.9527 42.9987 21.6887 42.732 21.342C42.4653 20.9953 42.26 20.5633 42.116 20.046C41.972 19.5287 41.9 18.934 41.9 18.262C41.9 17.6647 41.98 17.11 42.14 16.598C42.3 16.0807 42.5293 15.6327 42.828 15.254C43.1267 14.8753 43.492 14.5793 43.924 14.366C44.3613 14.1473 44.852 14.038 45.396 14.038C45.892 14.038 46.316 14.1233 46.668 14.294C47.0253 14.4593 47.3427 14.6913 47.62 14.99V10.502H49.044ZM52.6451 15.806C52.9011 15.2513 53.2158 14.8193 53.5891 14.51C53.9625 14.1953 54.4185 14.038 54.9571 14.038C55.1278 14.038 55.2905 14.0567 55.4451 14.094C55.6051 14.1313 55.7465 14.19 55.8691 14.27L55.7651 15.334C55.7331 15.4673 55.6531 15.534 55.5251 15.534C55.4505 15.534 55.3411 15.518 55.1971 15.486C55.0531 15.454 54.8905 15.438 54.7091 15.438C54.4531 15.438 54.2238 15.4753 54.0211 15.55C53.8238 15.6247 53.6451 15.7367 53.4851 15.886C53.3305 16.03 53.1891 16.2113 53.0611 16.43C52.9385 16.6433 52.8265 16.8887 52.7251 17.166V22.286H51.2931V14.182H52.1091C52.2638 14.182 52.3705 14.2113 52.4291 14.27C52.4878 14.3287 52.5278 14.43 52.5491 14.574L52.6451 15.806ZM61.3883 18.638C60.7323 18.6593 60.1723 18.7127 59.7083 18.798C59.2496 18.878 58.8736 18.9847 58.5803 19.118C58.2923 19.2513 58.0816 19.4087 57.9483 19.59C57.8203 19.7713 57.7563 19.974 57.7563 20.198C57.7563 20.4113 57.7909 20.5953 57.8603 20.75C57.9296 20.9047 58.0229 21.0327 58.1403 21.134C58.2629 21.23 58.4043 21.302 58.5643 21.35C58.7296 21.3927 58.9056 21.414 59.0923 21.414C59.3429 21.414 59.5723 21.39 59.7803 21.342C59.9883 21.2887 60.1829 21.214 60.3643 21.118C60.5509 21.022 60.7269 20.9073 60.8923 20.774C61.0629 20.6407 61.2283 20.4887 61.3883 20.318V18.638ZM56.7883 15.326C57.2363 14.894 57.7189 14.5713 58.2363 14.358C58.7536 14.1447 59.3269 14.038 59.9563 14.038C60.4096 14.038 60.8123 14.1127 61.1643 14.262C61.5163 14.4113 61.8123 14.6193 62.0523 14.886C62.2923 15.1527 62.4736 15.4753 62.5963 15.854C62.7189 16.2327 62.7803 16.6487 62.7803 17.102V22.286H62.1483C62.0096 22.286 61.9029 22.2647 61.8283 22.222C61.7536 22.174 61.6949 22.0833 61.6523 21.95L61.4923 21.182C61.2789 21.3793 61.0709 21.5553 60.8683 21.71C60.6656 21.8593 60.4523 21.9873 60.2283 22.094C60.0043 22.1953 59.7643 22.2727 59.5083 22.326C59.2576 22.3847 58.9776 22.414 58.6683 22.414C58.3536 22.414 58.0576 22.3713 57.7803 22.286C57.5029 22.1953 57.2603 22.062 57.0523 21.886C56.8496 21.71 56.6869 21.4887 56.5643 21.222C56.4469 20.95 56.3883 20.63 56.3883 20.262C56.3883 19.942 56.4763 19.6353 56.6523 19.342C56.8283 19.0433 57.1136 18.7793 57.5083 18.55C57.9029 18.3207 58.4176 18.134 59.0523 17.99C59.6869 17.8407 60.4656 17.7553 61.3883 17.734V17.102C61.3883 16.4727 61.2523 15.998 60.9803 15.678C60.7083 15.3527 60.3109 15.19 59.7883 15.19C59.4363 15.19 59.1403 15.2353 58.9003 15.326C58.6656 15.4113 58.4603 15.51 58.2843 15.622C58.1136 15.7287 57.9643 15.8273 57.8363 15.918C57.7136 16.0033 57.5909 16.046 57.4683 16.046C57.3723 16.046 57.2896 16.022 57.2203 15.974C57.1509 15.9207 57.0923 15.8567 57.0443 15.782L56.7883 15.326ZM67.7734 18.326C68.0614 18.326 68.3147 18.286 68.5334 18.206C68.752 18.126 68.936 18.014 69.0854 17.87C69.2347 17.726 69.3467 17.5553 69.4214 17.358C69.496 17.1553 69.5334 16.934 69.5334 16.694C69.5334 16.198 69.3814 15.8033 69.0774 15.51C68.7787 15.2167 68.344 15.07 67.7734 15.07C67.1974 15.07 66.7574 15.2167 66.4534 15.51C66.1547 15.8033 66.0054 16.198 66.0054 16.694C66.0054 16.934 66.0427 17.1553 66.1174 17.358C66.1974 17.5553 66.312 17.726 66.4614 17.87C66.6107 18.014 66.7947 18.126 67.0134 18.206C67.232 18.286 67.4854 18.326 67.7734 18.326ZM70.3414 22.726C70.3414 22.5287 70.2854 22.3687 70.1734 22.246C70.0614 22.1233 69.9094 22.0273 69.7174 21.958C69.5307 21.8887 69.312 21.8407 69.0614 21.814C68.8107 21.782 68.544 21.758 68.2614 21.742C67.984 21.726 67.7014 21.71 67.4134 21.694C67.1254 21.678 66.848 21.6513 66.5814 21.614C66.2827 21.7527 66.0374 21.9287 65.8454 22.142C65.6587 22.35 65.5654 22.5953 65.5654 22.878C65.5654 23.0593 65.6107 23.2273 65.7014 23.382C65.7974 23.542 65.9414 23.678 66.1334 23.79C66.3254 23.9073 66.5654 23.998 66.8534 24.062C67.1467 24.1313 67.4907 24.166 67.8854 24.166C68.2694 24.166 68.6134 24.1313 68.9174 24.062C69.2214 23.9927 69.4774 23.894 69.6854 23.766C69.8987 23.638 70.0614 23.486 70.1734 23.31C70.2854 23.134 70.3414 22.9393 70.3414 22.726ZM71.7894 14.502V15.03C71.7894 15.206 71.6774 15.318 71.4534 15.366L70.5334 15.486C70.7147 15.838 70.8054 16.2273 70.8054 16.654C70.8054 17.0487 70.728 17.4087 70.5734 17.734C70.424 18.054 70.216 18.3287 69.9494 18.558C69.6827 18.7873 69.3627 18.9633 68.9894 19.086C68.616 19.2087 68.2107 19.27 67.7734 19.27C67.3947 19.27 67.0374 19.2247 66.7014 19.134C66.5307 19.2407 66.4 19.3553 66.3094 19.478C66.2187 19.5953 66.1734 19.7153 66.1734 19.838C66.1734 20.03 66.2507 20.1767 66.4054 20.278C66.5654 20.374 66.7734 20.4433 67.0294 20.486C67.2854 20.5287 67.576 20.5553 67.9014 20.566C68.232 20.5767 68.568 20.5953 68.9094 20.622C69.256 20.6433 69.592 20.6833 69.9174 20.742C70.248 20.8007 70.5414 20.8967 70.7974 21.03C71.0534 21.1633 71.2587 21.3473 71.4134 21.582C71.5734 21.8167 71.6534 22.1207 71.6534 22.494C71.6534 22.8407 71.5654 23.1767 71.3894 23.502C71.2187 23.8273 70.9707 24.1153 70.6454 24.366C70.32 24.622 69.92 24.8247 69.4454 24.974C68.976 25.1287 68.4454 25.206 67.8534 25.206C67.2614 25.206 66.744 25.1473 66.3014 25.03C65.8587 24.9127 65.4907 24.7553 65.1974 24.558C64.904 24.3607 64.6827 24.1313 64.5334 23.87C64.3894 23.614 64.3174 23.3447 64.3174 23.062C64.3174 22.662 64.4427 22.3233 64.6934 22.046C64.944 21.7687 65.288 21.5473 65.7254 21.382C65.4854 21.2753 65.2934 21.134 65.1494 20.958C65.0107 20.7767 64.9414 20.534 64.9414 20.23C64.9414 20.1127 64.9627 19.9927 65.0054 19.87C65.048 19.742 65.112 19.6167 65.1974 19.494C65.288 19.366 65.3974 19.246 65.5254 19.134C65.6534 19.022 65.8027 18.9233 65.9734 18.838C65.5734 18.614 65.2614 18.318 65.0374 17.95C64.8134 17.5767 64.7014 17.1447 64.7014 16.654C64.7014 16.2593 64.776 15.902 64.9254 15.582C65.08 15.2567 65.2934 14.982 65.5654 14.758C65.8374 14.5287 66.16 14.3527 66.5334 14.23C66.912 14.1073 67.3254 14.046 67.7734 14.046C68.1254 14.046 68.4534 14.086 68.7574 14.166C69.0614 14.2407 69.3387 14.3527 69.5894 14.502H71.7894ZM76.5529 14.054C77.1449 14.054 77.6782 14.1527 78.1529 14.35C78.6275 14.5473 79.0329 14.8273 79.3689 15.19C79.7049 15.5527 79.9609 15.9927 80.1369 16.51C80.3182 17.022 80.4089 17.5953 80.4089 18.23C80.4089 18.87 80.3182 19.446 80.1369 19.958C79.9609 20.47 79.7049 20.9073 79.3689 21.27C79.0329 21.6327 78.6275 21.9127 78.1529 22.11C77.6782 22.302 77.1449 22.398 76.5529 22.398C75.9555 22.398 75.4169 22.302 74.9369 22.11C74.4622 21.9127 74.0569 21.6327 73.7209 21.27C73.3849 20.9073 73.1262 20.47 72.9449 19.958C72.7689 19.446 72.6809 18.87 72.6809 18.23C72.6809 17.5953 72.7689 17.022 72.9449 16.51C73.1262 15.9927 73.3849 15.5527 73.7209 15.19C74.0569 14.8273 74.4622 14.5473 74.9369 14.35C75.4169 14.1527 75.9555 14.054 76.5529 14.054ZM76.5529 21.286C77.3529 21.286 77.9502 21.0193 78.3449 20.486C78.7395 19.9473 78.9369 19.198 78.9369 18.238C78.9369 17.2727 78.7395 16.5207 78.3449 15.982C77.9502 15.4433 77.3529 15.174 76.5529 15.174C76.1475 15.174 75.7929 15.2433 75.4889 15.382C75.1902 15.5207 74.9395 15.7207 74.7369 15.982C74.5395 16.2433 74.3902 16.566 74.2889 16.95C74.1929 17.3287 74.1449 17.758 74.1449 18.238C74.1449 19.198 74.3422 19.9473 74.7369 20.486C75.1369 21.0193 75.7422 21.286 76.5529 21.286ZM78.8889 10.694L77.0249 12.758C76.9502 12.838 76.8755 12.8967 76.8009 12.934C76.7315 12.966 76.6409 12.982 76.5289 12.982H75.6809L76.8649 11.046C76.9395 10.9233 77.0195 10.8353 77.1049 10.782C77.1955 10.7233 77.3262 10.694 77.4969 10.694H78.8889ZM83.559 15.358C83.735 15.1607 83.9217 14.982 84.119 14.822C84.3163 14.662 84.5243 14.526 84.743 14.414C84.967 14.2967 85.2017 14.2087 85.447 14.15C85.6977 14.086 85.967 14.054 86.255 14.054C86.6977 14.054 87.087 14.1287 87.423 14.278C87.7643 14.422 88.047 14.63 88.271 14.902C88.5003 15.1687 88.6737 15.4913 88.791 15.87C88.9083 16.2487 88.967 16.6673 88.967 17.126V22.286H87.535V17.126C87.535 16.5127 87.3937 16.038 87.111 15.702C86.8337 15.3607 86.4097 15.19 85.839 15.19C85.4177 15.19 85.023 15.2913 84.655 15.494C84.2923 15.6967 83.9563 15.9713 83.647 16.318V22.286H82.215V14.182H83.071C83.2737 14.182 83.399 14.2807 83.447 14.478L83.559 15.358ZM96.6626 20.334C96.924 20.686 97.2093 20.934 97.5186 21.078C97.8333 21.222 98.1773 21.294 98.5506 21.294C99.3133 21.294 99.8973 21.0247 100.303 20.486C100.708 19.9473 100.911 19.1447 100.911 18.078C100.911 17.086 100.729 16.358 100.367 15.894C100.009 15.4247 99.4973 15.19 98.8306 15.19C98.3666 15.19 97.9613 15.2967 97.6146 15.51C97.2733 15.7233 96.956 16.0247 96.6626 16.414V20.334ZM96.6626 15.35C97.004 14.9553 97.388 14.6407 97.8146 14.406C98.2466 14.1713 98.7426 14.054 99.3026 14.054C99.7773 14.054 100.204 14.1447 100.583 14.326C100.967 14.5073 101.292 14.7713 101.559 15.118C101.825 15.4593 102.028 15.8753 102.167 16.366C102.311 16.8567 102.383 17.4087 102.383 18.022C102.383 18.678 102.303 19.2753 102.143 19.814C101.983 20.3527 101.751 20.814 101.447 21.198C101.148 21.5767 100.783 21.8727 100.351 22.086C99.9186 22.294 99.4333 22.398 98.8946 22.398C98.3613 22.398 97.9106 22.2993 97.5426 22.102C97.18 21.8993 96.8626 21.614 96.5906 21.246L96.5186 21.982C96.476 22.1847 96.3533 22.286 96.1506 22.286H95.2306V10.502H96.6626V15.35ZM108.576 18.638C107.92 18.6593 107.36 18.7127 106.896 18.798C106.437 18.878 106.061 18.9847 105.768 19.118C105.48 19.2513 105.269 19.4087 105.136 19.59C105.008 19.7713 104.944 19.974 104.944 20.198C104.944 20.4113 104.978 20.5953 105.048 20.75C105.117 20.9047 105.21 21.0327 105.328 21.134C105.45 21.23 105.592 21.302 105.752 21.35C105.917 21.3927 106.093 21.414 106.28 21.414C106.53 21.414 106.76 21.39 106.968 21.342C107.176 21.2887 107.37 21.214 107.552 21.118C107.738 21.022 107.914 20.9073 108.08 20.774C108.25 20.6407 108.416 20.4887 108.576 20.318V18.638ZM103.976 15.326C104.424 14.894 104.906 14.5713 105.424 14.358C105.941 14.1447 106.514 14.038 107.144 14.038C107.597 14.038 108 14.1127 108.352 14.262C108.704 14.4113 109 14.6193 109.24 14.886C109.48 15.1527 109.661 15.4753 109.784 15.854C109.906 16.2327 109.968 16.6487 109.968 17.102V22.286H109.336C109.197 22.286 109.09 22.2647 109.016 22.222C108.941 22.174 108.882 22.0833 108.84 21.95L108.68 21.182C108.466 21.3793 108.258 21.5553 108.056 21.71C107.853 21.8593 107.64 21.9873 107.416 22.094C107.192 22.1953 106.952 22.2727 106.696 22.326C106.445 22.3847 106.165 22.414 105.856 22.414C105.541 22.414 105.245 22.3713 104.968 22.286C104.69 22.1953 104.448 22.062 104.24 21.886C104.037 21.71 103.874 21.4887 103.752 21.222C103.634 20.95 103.576 20.63 103.576 20.262C103.576 19.942 103.664 19.6353 103.84 19.342C104.016 19.0433 104.301 18.7793 104.696 18.55C105.09 18.3207 105.605 18.134 106.24 17.99C106.874 17.8407 107.653 17.7553 108.576 17.734V17.102C108.576 16.4727 108.44 15.998 108.168 15.678C107.896 15.3527 107.498 15.19 106.976 15.19C106.624 15.19 106.328 15.2353 106.088 15.326C105.853 15.4113 105.648 15.51 105.472 15.622C105.301 15.7287 105.152 15.8273 105.024 15.918C104.901 16.0033 104.778 16.046 104.656 16.046C104.56 16.046 104.477 16.022 104.408 15.974C104.338 15.9207 104.28 15.8567 104.232 15.782L103.976 15.326ZM113.489 15.806C113.745 15.2513 114.06 14.8193 114.433 14.51C114.806 14.1953 115.262 14.038 115.801 14.038C115.972 14.038 116.134 14.0567 116.289 14.094C116.449 14.1313 116.59 14.19 116.713 14.27L116.609 15.334C116.577 15.4673 116.497 15.534 116.369 15.534C116.294 15.534 116.185 15.518 116.041 15.486C115.897 15.454 115.734 15.438 115.553 15.438C115.297 15.438 115.068 15.4753 114.865 15.55C114.668 15.6247 114.489 15.7367 114.329 15.886C114.174 16.03 114.033 16.2113 113.905 16.43C113.782 16.6433 113.67 16.8887 113.569 17.166V22.286H112.137V14.182H112.953C113.108 14.182 113.214 14.2113 113.273 14.27C113.332 14.3287 113.372 14.43 113.393 14.574L113.489 15.806ZM119.397 20.334C119.658 20.686 119.944 20.934 120.253 21.078C120.568 21.222 120.912 21.294 121.285 21.294C122.048 21.294 122.632 21.0247 123.037 20.486C123.442 19.9473 123.645 19.1447 123.645 18.078C123.645 17.086 123.464 16.358 123.101 15.894C122.744 15.4247 122.232 15.19 121.565 15.19C121.101 15.19 120.696 15.2967 120.349 15.51C120.008 15.7233 119.69 16.0247 119.397 16.414V20.334ZM119.397 15.35C119.738 14.9553 120.122 14.6407 120.549 14.406C120.981 14.1713 121.477 14.054 122.037 14.054C122.512 14.054 122.938 14.1447 123.317 14.326C123.701 14.5073 124.026 14.7713 124.293 15.118C124.56 15.4593 124.762 15.8753 124.901 16.366C125.045 16.8567 125.117 17.4087 125.117 18.022C125.117 18.678 125.037 19.2753 124.877 19.814C124.717 20.3527 124.485 20.814 124.181 21.198C123.882 21.5767 123.517 21.8727 123.085 22.086C122.653 22.294 122.168 22.398 121.629 22.398C121.096 22.398 120.645 22.2993 120.277 22.102C119.914 21.8993 119.597 21.614 119.325 21.246L119.253 21.982C119.21 22.1847 119.088 22.286 118.885 22.286H117.965V10.502H119.397V15.35ZM133.582 14.182V22.286H132.734C132.531 22.286 132.403 22.1873 132.35 21.99L132.238 21.118C131.886 21.5073 131.491 21.822 131.054 22.062C130.617 22.2967 130.115 22.414 129.55 22.414C129.107 22.414 128.715 22.342 128.374 22.198C128.038 22.0487 127.755 21.8407 127.526 21.574C127.297 21.3073 127.123 20.9847 127.006 20.606C126.894 20.2273 126.838 19.8087 126.838 19.35V14.182H128.262V19.35C128.262 19.9633 128.401 20.438 128.678 20.774C128.961 21.11 129.39 21.278 129.966 21.278C130.387 21.278 130.779 21.1793 131.142 20.982C131.51 20.7793 131.849 20.502 132.158 20.15V14.182H133.582ZM141.12 16.11C140.853 15.7527 140.565 15.5047 140.256 15.366C139.947 15.222 139.6 15.15 139.216 15.15C138.464 15.15 137.885 15.4193 137.48 15.958C137.075 16.4967 136.872 17.2647 136.872 18.262C136.872 18.79 136.917 19.2433 137.008 19.622C137.099 19.9953 137.232 20.3047 137.408 20.55C137.584 20.79 137.8 20.966 138.056 21.078C138.312 21.19 138.603 21.246 138.928 21.246C139.397 21.246 139.805 21.1393 140.152 20.926C140.504 20.7127 140.827 20.4113 141.12 20.022V16.11ZM142.544 10.502V22.286H141.696C141.493 22.286 141.365 22.1873 141.312 21.99L141.184 21.006C140.837 21.422 140.443 21.758 140 22.014C139.557 22.27 139.045 22.398 138.464 22.398C138 22.398 137.579 22.31 137.2 22.134C136.821 21.9527 136.499 21.6887 136.232 21.342C135.965 20.9953 135.76 20.5633 135.616 20.046C135.472 19.5287 135.4 18.934 135.4 18.262C135.4 17.6647 135.48 17.11 135.64 16.598C135.8 16.0807 136.029 15.6327 136.328 15.254C136.627 14.8753 136.992 14.5793 137.424 14.366C137.861 14.1473 138.352 14.038 138.896 14.038C139.392 14.038 139.816 14.1233 140.168 14.294C140.525 14.4593 140.843 14.6913 141.12 14.99V10.502H142.544ZM148.209 14.054C148.801 14.054 149.334 14.1527 149.809 14.35C150.284 14.5473 150.689 14.8273 151.025 15.19C151.361 15.5527 151.617 15.9927 151.793 16.51C151.974 17.022 152.065 17.5953 152.065 18.23C152.065 18.87 151.974 19.446 151.793 19.958C151.617 20.47 151.361 20.9073 151.025 21.27C150.689 21.6327 150.284 21.9127 149.809 22.11C149.334 22.302 148.801 22.398 148.209 22.398C147.612 22.398 147.073 22.302 146.593 22.11C146.118 21.9127 145.713 21.6327 145.377 21.27C145.041 20.9073 144.782 20.47 144.601 19.958C144.425 19.446 144.337 18.87 144.337 18.23C144.337 17.5953 144.425 17.022 144.601 16.51C144.782 15.9927 145.041 15.5527 145.377 15.19C145.713 14.8273 146.118 14.5473 146.593 14.35C147.073 14.1527 147.612 14.054 148.209 14.054ZM148.209 21.286C149.009 21.286 149.606 21.0193 150.001 20.486C150.396 19.9473 150.593 19.198 150.593 18.238C150.593 17.2727 150.396 16.5207 150.001 15.982C149.606 15.4433 149.009 15.174 148.209 15.174C147.804 15.174 147.449 15.2433 147.145 15.382C146.846 15.5207 146.596 15.7207 146.393 15.982C146.196 16.2433 146.046 16.566 145.945 16.95C145.849 17.3287 145.801 17.758 145.801 18.238C145.801 19.198 145.998 19.9473 146.393 20.486C146.793 21.0193 147.398 21.286 148.209 21.286Z" fill="#3F3F40"/>
</svg>
