<svg width="2010" height="65" viewBox="0 0 2010 65" fill="none" xmlns="http://www.w3.org/2000/svg">
<path d="M5 5.01166L10.0125 5.55902L15.0251 6.90875L20.0376 9.02061L25.0501 11.8317L30.0627 15.2583L35.0752 19.1985L40.0877 23.5347L45.1003 28.138L50.1128 32.8711L55.1253 37.5932L60.1378 42.1637L65.1504 46.4463L70.1629 50.3136L75.1754 53.6503L80.188 56.3572L85.2005 58.3536L90.213 59.5801L95.2256 60L100.238 59.601L105.251 58.3948L110.263 56.4175L115.276 53.7279L120.288 50.4061L125.301 46.551L130.313 42.2775L135.326 37.7127L140.338 32.9928L145.351 28.2581L150.363 23.6498L155.376 19.3051L160.388 15.3533L165.401 11.9122L170.414 9.08419L175.426 6.95353L180.439 5.58371L185.451 5.01548L190.464 5.26578L195.476 6.32713L200.489 8.16797L205.501 10.7334L210.514 13.9472L215.526 17.7134L220.539 21.92L225.551 26.4417L230.564 31.1438L235.576 35.8863L240.589 40.528L245.602 44.9305L250.614 48.9629L255.627 52.505L260.639 55.4513L265.652 57.7141L270.664 59.226L275.677 59.9419L280.689 59.8406L285.702 58.9251L290.714 57.2225L295.727 54.7837L300.739 51.6813L305.752 48.0076L310.764 43.8721L315.777 39.3979L320.789 34.7183L325.802 29.9726L330.815 25.3022L335.827 20.8461L340.84 16.7371L345.852 13.0976L350.865 10.0359L355.877 7.64315L360.89 5.99072L365.902 5.12777L370.915 5.08001L375.927 5.84884L380.94 7.41138L385.952 9.7211L390.965 12.7092L395.977 16.2867L400.99 20.347L406.003 24.7693L411.015 29.4218L416.028 34.166L421.04 38.8606L426.053 43.3657L431.065 47.5473L436.078 51.2807L441.09 54.4548L446.103 56.9751L451.115 58.7664L456.128 59.7755L461.14 59.9723L466.153 59.351L471.165 57.93L476.178 55.7516L481.19 52.8808L486.203 49.403L491.216 45.4218L496.228 41.0558L501.241 36.435L506.253 31.697L511.266 26.9829L516.278 22.4331L521.291 18.1832L526.303 14.3596L531.316 11.0762L536.328 8.43086L541.341 6.50235L546.353 5.3481L551.366 5.00242L556.378 5.47571L561.391 6.75379L566.404 8.79861L571.416 11.5493L576.429 14.924L581.441 18.822L586.454 23.1275L591.466 27.712L596.479 32.4392L601.491 37.1681L606.504 41.758L611.516 46.0723L616.529 49.9823L621.541 53.3716L626.554 56.1394L631.566 58.2032L636.579 59.5015L641.591 59.9957L646.604 59.6709L651.617 58.537L656.629 56.6277L661.642 53.9999L666.654 50.7317L671.667 46.9206L676.679 42.68L681.692 38.1362L686.704 33.4246L691.717 28.6854L696.729 24.0599L701.742 19.6857L706.754 15.6931L711.767 12.2011L716.779 9.31358L721.792 7.1166L726.805 5.67556L731.817 5.03338L736.83 5.20923L741.842 6.1978L746.855 7.9697L751.867 10.4721L756.88 13.6306L761.892 17.351L766.905 21.5226L771.917 26.0211L776.93 30.7125L781.942 35.4572L786.955 40.1138L791.967 44.5437L796.98 48.6149L801.992 52.2061L807.005 55.2105L812.018 57.5386L817.03 59.1209L822.043 59.9105L827.055 59.8837L832.068 59.0414L837.08 57.4086L842.093 55.0341L847.105 51.9884L852.118 48.3624L857.13 44.264L862.143 39.8152L867.155 35.1486L872.168 30.403L877.18 25.72L882.193 21.2388L887.206 17.093L892.218 13.4061L897.231 10.2878L902.243 7.831L907.256 6.10889L912.268 5.17274L917.281 5.05045L922.293 5.74561L927.306 7.23759L932.318 9.48189L937.331 12.4117L942.343 15.9398L947.356 19.9611L952.368 24.3557L957.381 28.993L962.393 33.7347L967.406 38.4396L972.419 42.9676L977.431 47.1839L982.444 50.9629L987.456 54.192L992.469 56.7751L997.481 58.6353L1002.49 59.7171L1007.51 59.9883L1012.52 59.441L1017.53 58.0913L1022.54 55.9794L1027.56 53.1683L1032.57 49.7416L1037.58 45.8015L1042.59 41.4653L1047.61 36.862L1052.62 32.1289L1057.63 27.4068L1062.64 22.8363L1067.66 18.5537L1072.67 14.6864L1077.68 11.3497L1082.69 8.64277L1087.71 6.64639L1092.72 5.41994L1097.73 5L1102.74 5.39903L1107.76 6.60518L1112.77 8.58249L1117.78 11.2721L1122.79 14.5939L1127.81 18.449L1132.82 22.7225L1137.83 27.2873L1142.84 32.0072L1147.86 36.7419L1152.87 41.3502L1157.88 45.6949L1162.89 49.6467L1167.91 53.0878L1172.92 55.9158L1177.93 58.0465L1182.94 59.4163L1187.96 59.9845L1192.97 59.7342L1197.98 58.6729L1202.99 56.832L1208.01 54.2666L1213.02 51.0528L1218.03 47.2866L1223.05 43.08L1228.06 38.5583L1233.07 33.8562L1238.08 29.1137L1243.1 24.472L1248.11 20.0695L1253.12 16.0371L1258.13 12.495L1263.15 9.5487L1268.16 7.28591L1273.17 5.77403L1278.18 5.05809L1283.2 5.15938L1288.21 6.07494L1293.22 7.77747L1298.23 10.2163L1303.25 13.3187L1308.26 16.9924L1313.27 21.1279L1318.28 25.6021L1323.3 30.2817L1328.31 35.0274L1333.32 39.6978L1338.33 44.1539L1343.35 48.2629L1348.36 51.9024L1353.37 54.9641L1358.38 57.3568L1363.4 59.0093L1368.41 59.8722L1373.42 59.92L1378.43 59.1512L1383.45 57.5886L1388.46 55.2789L1393.47 52.2908L1398.48 48.7133L1403.5 44.653L1408.51 40.2307L1413.52 35.5782L1418.53 30.834L1423.55 26.1394L1428.56 21.6343L1433.57 17.4527L1438.58 13.7193L1443.6 10.5452L1448.61 8.02493L1453.62 6.23358L1458.63 5.22447L1463.65 5.02767L1468.66 5.64901L1473.67 7.07002L1478.68 9.24837L1483.7 12.1192L1488.71 15.597L1493.72 19.5782L1498.73 23.9442L1503.75 28.565L1508.76 33.303L1513.77 38.0171L1518.78 42.5669L1523.8 46.8168L1528.81 50.6404L1533.82 53.9238L1538.83 56.5691L1543.85 58.4976L1548.86 59.6519L1553.87 59.9976L1558.88 59.5243L1563.9 58.2462L1568.91 56.2014L1573.92 53.4507L1578.93 50.076L1583.95 46.178L1588.96 41.8725L1593.97 37.288L1598.98 32.5608L1604 27.8319L1609.01 23.2419L1614.02 18.9277L1619.04 15.0177L1624.05 11.6284L1629.06 8.86055L1634.07 6.79678L1639.09 5.49851L1644.1 5.00434L1649.11 5.32905L1654.12 6.46295L1659.14 8.37226L1664.15 11.0001L1669.16 14.2683L1674.17 18.0794L1679.19 22.32L1684.2 26.8638L1689.21 31.5754L1694.22 36.3146L1699.24 40.9401L1704.25 45.3143L1709.26 49.3069L1714.27 52.7989L1719.29 55.6864L1724.3 57.8834L1729.31 59.3244L1734.32 59.9666L1739.34 59.7908L1744.35 58.8022L1749.36 57.0303L1754.37 54.5279L1759.39 51.3694L1764.4 47.649L1769.41 43.4774L1774.42 38.9789L1779.44 34.2875L1784.45 29.5428L1789.46 24.8862L1794.47 20.4563L1799.49 16.3851L1804.5 12.7939L1809.51 9.78947L1814.52 7.46143L1819.54 5.8791L1824.55 5.08954L1829.56 5.11633L1834.57 5.95862L1839.59 7.59135L1844.6 9.9659L1849.61 13.0116L1854.62 16.6376L1859.64 20.736L1864.65 25.1848L1869.66 29.8514L1874.67 34.597L1879.69 39.28L1884.7 43.7612L1889.71 47.907L1894.72 51.5939L1899.74 54.7122L1904.75 57.169L1909.76 58.8911L1914.77 59.8273L1919.79 59.9496L1924.8 59.2544L1929.81 57.7624L1934.82 55.5181L1939.84 52.5883L1944.85 49.0602L1949.86 45.0389L1954.87 40.6443L1959.89 36.007L1964.9 31.2653L1969.91 26.5604L1974.92 22.0324L1979.94 17.8161L1984.95 14.0371L1989.96 10.808L1994.97 8.2249L1999.99 6.36474L2005 5.28292" stroke="#7C96F6" stroke-width="10" stroke-miterlimit="10" stroke-linecap="round" stroke-linejoin="round"/>
</svg>
